<?xml version="1.0" encoding="utf-8"?>
<!-- Generator: Adobe Illustrator 19.0.0, SVG Export Plug-In . SVG Version: 6.00 Build 0)  -->
<svg version="1.1" id="Laag_1" xmlns="http://www.w3.org/2000/svg" xmlns:xlink="http://www.w3.org/1999/xlink" x="0px" y="0px"
	 viewBox="0 0 595.3 224" style="enable-background:new 0 0 595.3 224;" xml:space="preserve">
<style type="text/css">
	.st0{fill:#150E0C;}
	.st1{fill:#EEEDED;}
	.st2{fill:#E5262A;}
	.st3{fill:#F5F5F5;}
	.st4{fill:#282828;}
	.st5{fill:#FCFCFC;}
	.st6{fill:#FFED00;stroke:#000000;stroke-width:8;stroke-miterlimit:10;}
</style>
<g id="XMLID_1_">
	<path id="XMLID_51_" class="st0" d="M528.4,38.6c35.8,14.9,51.8,56,37,90.9c-14.6,34.4-54.9,51-89.6,36.6
		c-34.3-14.2-52.4-54.3-37.4-90.1C453.7,39.6,494.1,24.5,528.4,38.6z M462.3,89.2c-6.3-2.6-12.5-5.2-18.8-7.8
		c-0.8-0.3-1.3-0.5-1.6,0.6c-1.9,5.9-2.9,11.9-3.1,18.1c-1.1,33.6,24.8,62.9,58.3,65c27.4,1.7,47.9-10.1,61.5-34
		c0.9-1.6,0.9-1.7-0.8-2.4c-12.2-5-24.4-10.1-36.6-15.2c-1.3-0.6-1.9-0.2-2.7,0.8c-5.4,7.3-15.6,10.1-24.1,6.5
		c-8.7-3.6-14-12.8-12.5-22c0.2-1.2-0.1-1.6-1.2-2C474.6,94.3,468.5,91.8,462.3,89.2z M465.5,81.8C465.5,81.8,465.5,81.8,465.5,81.8
		c6.2,2.6,12.4,5.1,18.6,7.7c0.9,0.4,1.5,0.4,2.1-0.5c0.6-0.8,1.3-1.5,2-2.2c6.2-6,15.6-7.3,23.7-3.3c7.2,3.6,11.9,12.2,10.9,20.3
		c-0.2,1.3,0.2,1.8,1.3,2.2c12.3,5,24.5,10.1,36.7,15.2c0.3,0.1,0.5,0.2,0.8,0.3c0.7,0.3,1,0.1,1.2-0.6c0.3-1,0.6-2,0.9-3.1
		c2.6-10.1,2.8-20.2,0.5-30.4c-6.1-26.9-29.2-46.9-56.7-49.1c-14.3-1.1-27.6,2.3-39.7,10c-9.3,6-16.6,14-21.7,23.9
		c-0.6,1.1-0.2,1.4,0.7,1.8C453,76.7,459.2,79.3,465.5,81.8z M508.6,86.4c-8.5-3.5-18.3,0.5-21.9,9c-3.5,8.5,0.6,18.4,9.2,21.9
		c8.3,3.4,18.1-0.7,21.6-9.1C521.2,99.6,517.2,89.9,508.6,86.4z"/>
	<path id="XMLID_50_" class="st1" d="M462.3,89.2c6.1,2.5,12.3,5.1,18.4,7.6c1,0.4,1.4,0.9,1.2,2c-1.5,9.2,3.8,18.3,12.5,22
		c8.4,3.5,18.7,0.8,24.1-6.5c0.8-1,1.4-1.3,2.7-0.8c12.2,5.1,24.4,10.1,36.6,15.2c1.7,0.7,1.8,0.7,0.8,2.4
		c-13.6,23.9-34.1,35.7-61.5,34c-33.5-2.1-59.4-31.4-58.3-65c0.2-6.2,1.3-12.2,3.1-18.1c0.4-1.1,0.9-0.9,1.6-0.6
		C449.8,84,456,86.6,462.3,89.2z"/>
	<path id="XMLID_49_" class="st2" d="M465.5,81.8c-6.2-2.6-12.5-5.2-18.7-7.7c-1-0.4-1.3-0.7-0.7-1.8c5.1-9.9,12.4-17.8,21.7-23.9
		c12.1-7.8,25.3-11.2,39.7-10c27.5,2.1,50.6,22.2,56.7,49.1c2.3,10.2,2.1,20.3-0.5,30.4c-0.3,1-0.6,2-0.9,3.1
		c-0.2,0.7-0.5,0.9-1.2,0.6c-0.2-0.1-0.5-0.2-0.8-0.3c-12.2-5.1-24.5-10.1-36.7-15.2c-1.1-0.5-1.5-0.9-1.3-2.2
		c1-8.1-3.7-16.8-10.9-20.3c-8.1-4-17.4-2.7-23.7,3.3c-0.7,0.7-1.5,1.4-2,2.2c-0.6,0.9-1.2,0.9-2.1,0.5
		C477.9,86.9,471.7,84.4,465.5,81.8C465.5,81.8,465.5,81.8,465.5,81.8z"/>
	<path id="XMLID_46_" class="st3" d="M508.6,86.4c8.5,3.5,12.5,13.3,9,21.9c-3.5,8.4-13.3,12.5-21.6,9.1
		c-8.6-3.5-12.8-13.4-9.2-21.9C490.3,86.9,500.1,82.8,508.6,86.4z M514.2,106.6c2.8-6.7-0.4-14.3-7-17c-6.6-2.7-14.2,0.4-17,7
		c-2.8,6.6,0.4,14.3,6.9,17.1C503.8,116.5,511.4,113.4,514.2,106.6z"/>
	<path id="XMLID_43_" class="st4" d="M514.2,106.6c-2.8,6.7-10.4,9.9-17.1,7.1c-6.6-2.7-9.7-10.4-6.9-17.1c2.8-6.6,10.4-9.8,17-7
		C513.8,92.3,517,100,514.2,106.6z M512.7,106c2.4-5.8-0.4-12.4-6.2-14.8c-5.8-2.4-12.3,0.4-14.7,6.3c-2.3,5.7,0.4,12.3,6.1,14.7
		C503.6,114.6,510.3,111.8,512.7,106z"/>
	<path id="XMLID_42_" class="st5" d="M512.7,106c-2.4,5.8-9.1,8.6-14.8,6.2c-5.7-2.4-8.5-9-6.1-14.7c2.4-5.9,8.9-8.7,14.7-6.3
		C512.3,93.5,515,100.2,512.7,106z"/>
</g>
<g id="XMLID_28_">
	<path id="XMLID_68_" class="st6" d="M210.3,86.9c-3.3-5.8-6.5-11.6-10.3-18.2c24.6-7.4,44.8-3.5,55.9,22.2
		c13.6-6.6,13-25.3,29.8-26.1c12.5-0.6,24.9-3.7,39.3-5.9c-5.4-23.4,0.9-40.2,29.2-42.8c0.3,15.1,0.5,30.4,0.8,46.6
		c8.6,0.6,15.7,1.1,23.9,1.6c0.2,8.4,0.3,16.4,0.4,24.9c-1.4,0.6-2.9,1.5-4.6,1.9c-6.5,1.2-17.9,0.6-18.8,3.5
		c-2.8,8.7-2.4,18.8-1.6,28.2c0.3,3.4,5.2,8.1,8.7,8.9c3.4,0.7,8.6-2,11.6-4.7c8.1-7.3,15.4-15.5,23.3-23.5
		c11.9,15.3,13,29.6,5.1,41.2c-7.9,11.6-30.3,18.6-46.1,14.6c-19.8-5.1-30.3-17.7-31.3-38.1c-0.5-9.1-0.4-18.2-0.5-27.3
		c-9.2-1.4-17-2.5-25.9-3.8c0.7-0.4,0.2-0.2-0.1,0.1c-23.6,25.2-23.6,25.2-2.3,51.8c5.3,6.6,10.5,13.4,16.2,20.6
		c-27.4,6.2-32.6,4.4-55.7-19.8c-9.1,26-29.3,26.1-52.2,22.5c2.5-4.6,4.5-8.4,8.3-15.5c-23.2,12.1-45,18.3-70.5,10.5
		c0.2,12.1,0.4,22.8,0.6,32.9c-25.2,5.6-26.4,4.8-33.8-16.1c-5.7-16.2-11.9-32.2-21-47.9c0.3,17.5,0.6,35,1,52.8
		c-13.2,0.2-24.5,0.4-37.3,0.7c-0.8-45.6-1.6-90.8-2.5-136c-4.6-1.5-9.1-1.7-11.3-4c-2.7-2.8-4.9-7.5-4.7-11.2
		c0.1-2.4,4.7-6.3,7.6-6.6c10-1,20.2-1.4,30.2-0.5c3.8,0.4,8.6,4.4,10.5,8.1c4.8,9.2,8.3,19.1,14.8,28.4c-0.8-9.4-1.6-18.8-2.4-29.1
		c15.1-0.3,29.4-0.5,45.3-0.8c0.4,20.7,0.7,40.7,1.2,64.6c23.2-17.3,46-17,69.3-8.7c-2.2,5.2-3.5,11-6.8,15.4
		c-8.8,11.7-18.4,22.8-27.6,34.1c1.1,1.1,2.3,2.2,3.4,3.2c6.8-5.4,13.6-10.8,21.4-17c6,7,12,14,18.5,21.6
		c5.2-6.8,10.9-13.3,15.5-20.5c1.5-2.4,1.5-7.7-0.1-9.7C227.1,104.5,218.6,95.8,210.3,86.9z M156.9,131
		c7.8-10.3,13.9-18.3,21.3-28.1C158.2,102.5,151.9,110.9,156.9,131z"/>
</g>
</svg>
